<?xml version="1.0" encoding="UTF-8"?>
<svg version="1.1" xmlns="http://www.w3.org/2000/svg" width="1024" height="1024">
<path d="M0 0 C1.12297485 -0.00637985 2.24594971 -0.0127597 3.4029541 -0.01933289 C4.62671753 -0.02044571 5.85048096 -0.02155853 7.11132812 -0.02270508 C9.00739807 -0.02769768 9.00739807 -0.02769768 10.94177246 -0.03279114 C13.63195279 -0.03786753 16.32203231 -0.04063062 19.01220703 -0.04003906 C21.73721073 -0.03995866 24.46204326 -0.04675563 27.18701172 -0.06054688 C78.862712 -0.3034965 78.862712 -0.3034965 96.15820312 15.43432617 C105.68134442 25.36740402 110.05650568 37.30473237 109.95507812 50.95776367 C109.9477063 52.14015625 109.9477063 52.14015625 109.94018555 53.34643555 C109.81422858 59.64557565 108.97129733 65.25275556 106.64257812 71.14526367 C106.31386719 71.98186523 105.98515625 72.8184668 105.64648438 73.68041992 C100.75820322 84.6240805 91.98106841 93.65911519 80.87695312 98.30151367 C80.13960938 98.57995117 79.40226562 98.85838867 78.64257812 99.14526367 C80.00725707 103.8191123 82.01533753 107.73096406 84.58007812 111.83276367 C85.39926653 113.16909708 86.21690456 114.5063818 87.03320312 115.84448242 C87.46181641 116.54621582 87.89042969 117.24794922 88.33203125 117.97094727 C90.55669563 121.66186771 92.68765351 125.40622261 94.83007812 129.14526367 C99.80563598 137.80745409 104.98510425 146.33894052 110.22338867 154.84448242 C110.79871338 155.78163086 111.37403809 156.7187793 111.96679688 157.68432617 C112.74156372 158.94043701 112.74156372 158.94043701 113.53198242 160.22192383 C114.64257812 162.14526367 114.64257812 162.14526367 114.64257812 163.14526367 C104.74257812 163.14526367 94.84257812 163.14526367 84.64257812 163.14526367 C82.99257812 159.84526367 81.34257812 156.54526367 79.64257812 153.14526367 C77.89500536 150.0033794 76.13068799 146.88108475 74.33007812 143.77026367 C73.28566918 141.95393683 72.24140685 140.13752568 71.19726562 138.32104492 C70.63491211 137.34474121 70.07255859 136.3684375 69.49316406 135.36254883 C66.33232108 129.86735242 63.18717387 124.36318831 60.04190063 118.85906982 C58.96571474 116.97637155 57.88857406 115.09422215 56.8112793 113.2121582 C56.14694492 112.05055297 55.48263701 110.88893261 54.81835938 109.72729492 C54.22966064 108.69838135 53.64096191 107.66946777 53.03442383 106.609375 C52.204161 105.13948503 51.39755003 103.65520748 50.64257812 102.14526367 C40.08257812 101.81526367 29.52257812 101.48526367 18.64257812 101.14526367 C18.97257812 103.12526367 19.30257812 105.10526367 19.64257812 107.14526367 C19.72447495 109.0844965 19.76049482 111.02608461 19.75610352 112.96704102 C19.75602798 114.08774994 19.75595245 115.20845886 19.75587463 116.36312866 C19.75071335 117.55709259 19.74555206 118.75105652 19.74023438 119.98120117 C19.73881943 121.21569 19.73740448 122.45017883 19.73594666 123.72207642 C19.73036084 127.65483042 19.71781087 131.58752695 19.70507812 135.52026367 C19.69949725 138.19083576 19.69549871 140.8614073 19.69140625 143.53198242 C19.68039605 150.06976236 19.66367198 156.60750891 19.64257812 163.14526367 C15.51794396 163.34148413 11.3928624 163.52576584 7.26757812 163.70776367 C6.09195313 163.76383789 4.91632813 163.81991211 3.70507812 163.87768555 C2.58359375 163.92602539 1.46210937 163.97436523 0.30664062 164.02416992 C-0.73024902 164.07130127 -1.76713867 164.11843262 -2.83544922 164.16699219 C-5.35742188 164.14526367 -5.35742188 164.14526367 -7.35742188 163.14526367 C-7.32649476 162.58859261 -7.29556765 162.03192154 -7.26370335 161.45838165 C-6.326123 143.91298899 -6.29014966 126.40830429 -6.45795703 108.84559441 C-6.49299721 105.0420759 -6.52111972 101.23850542 -6.55006409 97.43493652 C-6.6055591 90.27458242 -6.66702262 83.11429331 -6.73078543 75.95400858 C-6.80323446 67.78435842 -6.86879393 59.61465714 -6.93385589 51.44494534 C-7.06753213 34.67831774 -7.20959641 17.91177263 -7.35742188 1.14526367 C-4.7716737 -0.14761042 -2.8956845 0.01115607 0 0 Z M18.64257812 22.14526367 C18.5487651 23.98644397 18.52513858 25.83124009 18.52905273 27.67480469 C18.52912827 28.85595352 18.5292038 30.03710236 18.52928162 31.25404358 C18.5344429 32.53943527 18.53960419 33.82482697 18.54492188 35.14916992 C18.54633682 36.45732162 18.54775177 37.76547333 18.54920959 39.11326599 C18.55303403 42.59689226 18.56286366 46.08047707 18.57391357 49.56408691 C18.5841293 53.11653075 18.58870756 56.66898127 18.59375 60.22143555 C18.604486 67.19606199 18.62156153 74.17066084 18.64257812 81.14526367 C23.54979015 81.19527446 28.45684882 81.23126752 33.36425781 81.25512695 C35.02834665 81.26508963 36.69241844 81.27866469 38.35644531 81.29614258 C58.7527838 81.8405982 58.7527838 81.8405982 76.64257812 73.14526367 C83.06358339 65.69689757 84.09920525 57.22875395 83.96679688 47.66479492 C83.35732595 41.04873104 80.99572736 35.19537381 76.64257812 30.14526367 C75.98257813 30.14526367 75.32257813 30.14526367 74.64257812 30.14526367 C74.64257812 29.48526367 74.64257812 28.82526367 74.64257812 28.14526367 C73.06183248 27.32774064 71.47786589 26.5164437 69.89257812 25.70776367 C69.01085937 25.25530273 68.12914062 24.8028418 67.22070312 24.33666992 C63.68542296 22.70294196 60.48946475 22.0367073 56.61523438 21.82885742 C55.83253174 21.78680176 55.0498291 21.74474609 54.2434082 21.70141602 C53.40575928 21.66226074 52.56811035 21.62310547 51.70507812 21.58276367 C50.83713623 21.54103027 49.96919434 21.49929688 49.07495117 21.45629883 C42.36856506 21.16234327 35.66760874 21.03938769 28.95507812 21.02026367 C28.04056885 21.01567139 27.12605957 21.0110791 26.18383789 21.00634766 C22.08975372 20.59960621 22.08975372 20.59960621 18.64257812 22.14526367 Z " fill="#0185E2" transform="translate(103.357421875,413.854736328125)"/>
<path d="M0 0 C1.02029297 -0.00128906 2.04058594 -0.00257813 3.09179688 -0.00390625 C4.15076172 -0.00003906 5.20972656 0.00382812 6.30078125 0.0078125 C7.37134766 0.00394531 8.44191406 0.00007813 9.54492188 -0.00390625 C11.06956055 -0.00197266 11.06956055 -0.00197266 12.625 0 C13.55787842 0.00112793 14.49075684 0.00225586 15.4519043 0.00341797 C17.61328125 0.1328125 17.61328125 0.1328125 18.61328125 1.1328125 C18.73627291 2.81990597 18.79113383 4.51202153 18.81860352 6.20336914 C18.83854874 7.28441422 18.85849396 8.36545929 18.87904358 9.47926331 C18.89575607 10.6552861 18.91246857 11.8313089 18.9296875 13.04296875 C18.9504686 14.24014023 18.97124969 15.43731171 18.99266052 16.67076111 C19.05828404 20.51221737 19.11710028 24.35374451 19.17578125 28.1953125 C19.2189543 30.79232517 19.26256818 33.38933056 19.30664062 35.98632812 C19.41397841 42.36841367 19.51572056 48.75057043 19.61328125 55.1328125 C20.28657471 54.64925293 20.95986816 54.16569336 21.65356445 53.66748047 C22.54390381 53.03471191 23.43424316 52.40194336 24.3515625 51.75 C25.67087769 50.80809814 25.67087769 50.80809814 27.0168457 49.84716797 C36.776224 43.40331706 49.13020035 42.98611276 60.42578125 44.6953125 C72.498385 47.46796791 82.16624635 53.65027827 88.875 64.09765625 C95.13543609 75.4781516 95.08081738 87.53915618 95.125 100.14453125 C95.1418736 101.96728199 95.16002739 103.79002128 95.17939758 105.61274719 C95.2266128 110.37519757 95.25660549 115.13760152 95.28283691 119.90020752 C95.31278722 124.77405969 95.35926732 129.64775232 95.40429688 134.52148438 C95.49000556 144.05852799 95.55596334 153.59555596 95.61328125 163.1328125 C82.24828125 163.6278125 82.24828125 163.6278125 68.61328125 164.1328125 C68.62375488 162.04485352 68.63422852 159.95689453 68.64501953 157.80566406 C68.67833422 150.86473272 68.70032029 143.9237976 68.71690559 136.98280716 C68.7272906 132.77934753 68.74135182 128.57597063 68.76416016 124.37255859 C68.78607883 120.30711823 68.79788947 116.24175685 68.80303574 112.1762619 C68.80669767 110.63432321 68.81384721 109.09238826 68.82474136 107.5504837 C69.35672466 89.87026345 69.35672466 89.87026345 62.61328125 74.1328125 C54.50990178 67.86292495 46.58775972 67.25891559 36.61328125 68.1328125 C30.70464444 69.82859887 25.73895531 72.71960905 22.59750366 78.13331604 C18.38432227 86.69260222 19.26635837 96.9021469 19.19921875 106.19921875 C19.18048122 107.84546349 19.16090593 109.49169888 19.14053345 111.13792419 C19.08947902 115.44335388 19.04971153 119.74881462 19.01239014 124.05438232 C18.97218196 128.45885733 18.92116683 132.86320618 18.87109375 137.26757812 C18.77465101 145.88923632 18.69014629 154.51095762 18.61328125 163.1328125 C16.01436971 164.43226827 14.28661469 164.1551202 11.38671875 164.01171875 C10.35546875 163.96337891 9.32421875 163.91503906 8.26171875 163.86523438 C7.18148438 163.80916016 6.10125 163.75308594 4.98828125 163.6953125 C3.9003125 163.64310547 2.81234375 163.59089844 1.69140625 163.53710938 C-1.00157685 163.40718475 -3.69421211 163.27221088 -6.38671875 163.1328125 C-7.47172273 159.61350567 -7.50990535 156.36243506 -7.50697327 152.69146729 C-7.50782769 152.04693187 -7.50868212 151.40239645 -7.50956243 150.73832965 C-7.51120807 148.58105858 -7.50571089 146.42386546 -7.50024414 144.26660156 C-7.49996205 142.71923321 -7.50012044 141.17186473 -7.50068665 139.62449646 C-7.50097375 135.42444234 -7.49509106 131.22441673 -7.48811269 127.02436924 C-7.48186468 122.63479825 -7.4812742 118.24522661 -7.48008728 113.85565186 C-7.47697824 105.54365123 -7.4687706 97.23166375 -7.45873779 88.91966891 C-7.44756341 79.45663829 -7.44206286 69.99360704 -7.43704236 60.53057146 C-7.42658764 41.06464436 -7.40899645 21.59872948 -7.38671875 2.1328125 C-8.04671875 1.8028125 -8.70671875 1.4728125 -9.38671875 1.1328125 C-6.19648972 0.18974465 -3.32079804 0.00400062 0 0 Z " fill="#0284DF" transform="translate(473.38671875,413.8671875)"/>
<path d="M0 0 C11.16413041 12.25678998 16.04512857 28.6136849 15.9609375 44.890625 C15.96480469 45.66148437 15.96867187 46.43234375 15.97265625 47.2265625 C15.96268739 52.88887511 15.96268739 52.88887511 14.8359375 54.015625 C12.18855661 54.11073766 9.56734749 54.14118135 6.91967773 54.12915039 C6.09047821 54.12929642 5.26127869 54.12944244 4.4069519 54.1295929 C1.65278552 54.12889351 -1.10131411 54.12109993 -3.85546875 54.11328125 C-5.75976016 54.11141716 -7.66405205 54.10999322 -9.56834412 54.10899353 C-14.59074213 54.10516763 -19.61311142 54.09533673 -24.63549805 54.08428955 C-29.7563437 54.07407698 -34.87719398 54.06949624 -39.99804688 54.06445312 C-50.05339807 54.05371453 -60.1087279 54.03663724 -70.1640625 54.015625 C-69.69752081 55.94945756 -69.22643633 57.88219456 -68.75341797 59.81445312 C-68.49156708 60.8908606 -68.22971619 61.96726807 -67.95993042 63.07629395 C-66.13777623 69.80594628 -62.25612946 76.41576725 -56.1640625 80.015625 C-45.89129571 84.8715233 -37.2598971 85.87184814 -26.1640625 83.015625 C-20.42619145 80.64749148 -16.84930265 78.48702413 -14.21484375 72.8359375 C-12.95361328 70.71337891 -12.95361328 70.71337891 -11.1640625 69.015625 C-6.70290246 67.99665637 -2.39785517 68.26128695 2.1484375 68.515625 C3.36595703 68.55171875 4.58347656 68.5878125 5.83789062 68.625 C8.84044002 68.71919763 11.83658389 68.85059867 14.8359375 69.015625 C13.45862362 76.31459925 11.35203108 81.09573366 6.8359375 87.015625 C6.39378906 87.634375 5.95164062 88.253125 5.49609375 88.890625 C-1.8952734 98.48869017 -14.40673544 104.12020353 -26.015625 106.6328125 C-44.35063646 108.86213151 -60.73676136 106.02805869 -75.921875 95.015625 C-89.13433754 84.02544209 -94.47196205 69.32320961 -96.0390625 52.578125 C-96.81522434 34.48030257 -92.81487905 16.69347179 -81.0625 2.47265625 C-71.20573152 -7.92397058 -58.44928825 -14.10702037 -44.08203125 -14.95703125 C-27.49490541 -15.11246616 -12.42353301 -11.66290854 0 0 Z M-62.2890625 17.140625 C-66.82725967 22.6674583 -68.78051813 29.09790314 -70.1640625 36.015625 C-50.6940625 36.015625 -31.2240625 36.015625 -11.1640625 36.015625 C-11.1640625 27.61077098 -13.35975865 21.46266512 -18.875 15.015625 C-24.76134926 9.68861209 -31.5019078 7.38128419 -39.3515625 6.765625 C-48.44781945 7.36210087 -55.98621848 10.46149179 -62.2890625 17.140625 Z " fill="#0183E0" transform="translate(318.1640625,472.984375)"/>
<path d="M0 0 C11.85212715 11.31222548 16.56983497 26.66488407 17.0859375 42.6640625 C17.15077015 47.05971588 16.87446891 50.62765545 16 55 C-25.58 55.495 -25.58 55.495 -68 56 C-64.69890915 71.11414777 -64.69890915 71.11414777 -54.625 81.4375 C-45.77683948 86.18756512 -35.55175943 87.13616791 -25.9375 84.5 C-17.53634289 81.39771398 -13.99830993 77.99661986 -10 70 C-1.42 70 7.16 70 16 70 C14.09684259 81.41894448 7.8765 90.22692149 -1.3125 97.125 C-16.35801241 107.64283491 -32.93648404 110.07618497 -50.9375 107.25 C-64.45773933 104.28861827 -75.83842243 97.28579436 -84 86 C-94.737126 68.20217891 -96.32134575 47.62184874 -91.90234375 27.62109375 C-88.58488971 14.30819378 -81.24312582 3.0661044 -70 -5 C-47.78380708 -18.17710782 -19.85501262 -17.29414835 0 0 Z M-59 16 C-64.87263035 21.87263035 -66.85328784 28.97301487 -68 37 C-48.53 37 -29.06 37 -9 37 C-10.27844083 26.7724734 -12.7936597 19.90251803 -20.9609375 13.40234375 C-32.9781989 5.13759884 -48.12752095 6.72709676 -59 16 Z " fill="#00A096" transform="translate(797,472)"/>
<path d="M0 0 C9.38451395 7.47496937 14.96242116 17.05153435 17.24609375 28.7890625 C17.51838499 31.63439677 17.55668305 34.45930372 17.56494141 37.31640625 C17.57498703 38.12712082 17.58503265 38.93783539 17.59538269 39.77311707 C17.62600932 42.42425903 17.64319216 45.07530099 17.66015625 47.7265625 C17.67888445 49.57601774 17.69845908 51.42546459 17.71884155 53.27490234 C17.76999429 58.12122632 17.80970988 62.96757795 17.84698486 67.81402588 C17.88713063 72.76801296 17.93817456 77.72188668 17.98828125 82.67578125 C18.08484081 92.38013631 18.16830071 102.08453884 18.24609375 111.7890625 C9.66609375 111.7890625 1.08609375 111.7890625 -7.75390625 111.7890625 C-7.76325195 109.50887207 -7.77259766 107.22868164 -7.78222656 104.87939453 C-7.81610979 97.31560914 -7.8717213 89.75209332 -7.93780899 82.18852425 C-7.97718946 77.60613777 -8.00942393 73.02394074 -8.02490234 68.44140625 C-8.04013141 64.01263591 -8.07468658 59.58438675 -8.12221527 55.15584946 C-8.13696497 53.4727623 -8.14494356 51.7896007 -8.1457901 50.10644913 C-7.92933733 35.49217782 -7.92933733 35.49217782 -14.47418213 22.8664856 C-20.85643073 16.78238601 -27.83831214 16.39587881 -36.33984375 16.5390625 C-42.53498183 16.99271106 -47.79006733 18.86344312 -52.44866943 23.19485474 C-59.25204435 31.50445263 -58.35819786 42.50226258 -58.36328125 52.609375 C-58.37828505 54.32145739 -58.39501677 56.03352542 -58.41339111 57.74557495 C-58.45683029 62.22038488 -58.47701132 66.69499964 -58.49212646 71.16998291 C-58.51178265 75.74885487 -58.55374273 80.32751864 -58.59375 84.90625 C-58.6687981 93.86715817 -58.71717764 102.82791526 -58.75390625 111.7890625 C-67.33390625 111.7890625 -75.91390625 111.7890625 -84.75390625 111.7890625 C-84.42390625 73.1790625 -84.09390625 34.5690625 -83.75390625 -5.2109375 C-60.75390625 -6.2109375 -60.75390625 -6.2109375 -57.75390625 -4.2109375 C-57.4609375 -2.046875 -57.4609375 -2.046875 -57.56640625 0.4140625 C-57.59347656 1.23132813 -57.62054687 2.04859375 -57.6484375 2.890625 C-57.68324219 3.51710938 -57.71804688 4.14359375 -57.75390625 4.7890625 C-57.34140625 4.40234375 -56.92890625 4.015625 -56.50390625 3.6171875 C-41.34075654 -10.0567243 -17.12423145 -11.4161543 0 0 Z " fill="#00A79E" transform="translate(671.75390625,465.2109375)"/>
<path d="M0 0 C9.71090598 8.15652004 14.50113286 18.09390489 15.9699707 30.75561523 C16.17664602 34.6886856 16.26664836 38.61344657 16.3046875 42.55078125 C16.33210038 44.03045641 16.36061692 45.51011147 16.39013672 46.98974609 C16.48059393 52.05157244 16.52045471 57.11330446 16.5546875 62.17578125 C16.56222046 63.17649658 16.56975342 64.17721191 16.57751465 65.20825195 C16.6324142 72.73907609 16.66391997 80.26977832 16.6796875 87.80078125 C16.68254761 88.85980652 16.68540771 89.91883179 16.68835449 91.00994873 C16.69408045 94.01578505 16.69225961 97.02150776 16.6875 100.02734375 C16.68946381 100.93921448 16.69142761 101.85108521 16.69345093 102.79058838 C16.6700726 109.06039615 16.6700726 109.06039615 15.5546875 110.17578125 C13.77599024 110.3334253 11.99150274 110.42678802 10.20703125 110.4921875 C9.12744141 110.53408203 8.04785156 110.57597656 6.93554688 110.61914062 C5.79923828 110.65845703 4.66292969 110.69777344 3.4921875 110.73828125 C1.78192383 110.80305664 1.78192383 110.80305664 0.03710938 110.86914062 C-2.79023445 110.97560964 -5.61766988 111.07762332 -8.4453125 111.17578125 C-8.45339935 110.32546326 -8.46148621 109.47514526 -8.46981812 108.59906006 C-8.54814978 100.53822783 -8.63555274 92.47755394 -8.73283958 84.41692734 C-8.78252949 80.27407855 -8.82885901 76.13125196 -8.8671875 71.98828125 C-8.90438894 67.98107975 -8.95083699 63.97407735 -9.00337601 59.96704865 C-9.02173674 58.44748724 -9.03691023 56.92788346 -9.04865646 55.40825653 C-8.9385207 38.67023446 -8.9385207 38.67023446 -14.4453125 23.17578125 C-14.9403125 21.69078125 -14.9403125 21.69078125 -15.4453125 20.17578125 C-17.65965191 19.08835431 -17.65965191 19.08835431 -20.4453125 18.17578125 C-21.3940625 17.63953125 -22.3428125 17.10328125 -23.3203125 16.55078125 C-29.91934723 13.72882561 -38.39992534 14.17573442 -45.2421875 15.8671875 C-50.83547572 18.11013362 -54.6567281 21.40929514 -57.29388142 26.96273804 C-59.17285577 31.72117292 -59.888328 36.0261533 -59.87768555 41.15234375 C-59.8878772 41.9045369 -59.89806885 42.65673004 -59.90856934 43.43171692 C-59.93847286 45.88814968 -59.94793008 48.34419111 -59.95703125 50.80078125 C-59.97389481 52.51571933 -59.99204729 54.23064517 -60.01142883 55.94555664 C-60.05875308 60.43678972 -60.08867575 64.92797317 -60.11486816 69.41937256 C-60.14476279 74.01145218 -60.19126237 78.60336114 -60.23632812 83.1953125 C-60.32216103 92.18871248 -60.3895949 101.18214777 -60.4453125 110.17578125 C-62.94631824 111.42628412 -64.44874302 111.20571574 -67.234375 111.0546875 C-68.17539062 111.00634766 -69.11640625 110.95800781 -70.0859375 110.90820312 C-71.07078125 110.85212891 -72.055625 110.79605469 -73.0703125 110.73828125 C-74.06289063 110.68607422 -75.05546875 110.63386719 -76.078125 110.58007812 C-78.53415818 110.45019176 -80.9898061 110.31521961 -83.4453125 110.17578125 C-83.9403125 111.16578125 -83.9403125 111.16578125 -84.4453125 112.17578125 C-85.63894562 109.78851501 -85.58551177 108.29332434 -85.61026001 105.62757874 C-85.62149399 104.66995132 -85.63272797 103.71232391 -85.64430237 102.72567749 C-85.65162888 101.67159698 -85.65895538 100.61751648 -85.66650391 99.53149414 C-85.6780098 98.42411392 -85.68951569 97.3167337 -85.70137024 96.17579651 C-85.73817674 92.50003876 -85.76774994 88.82426357 -85.796875 85.1484375 C-85.8199798 82.60257209 -85.84337003 80.05670926 -85.86703491 77.510849 C-85.91554692 72.16846854 -85.96056079 66.82607405 -86.00292969 61.48364258 C-86.05199081 55.30562259 -86.10829609 49.12769981 -86.16835082 42.94977766 C-86.22586506 37.01031805 -86.27762007 31.0708184 -86.32694626 25.13128471 C-86.34855532 22.60223483 -86.3717091 20.07319766 -86.3964119 17.5441761 C-86.43019427 14.01262473 -86.45743315 10.48108261 -86.48291016 6.94946289 C-86.49428513 5.89740662 -86.5056601 4.84535034 -86.51737976 3.76141357 C-86.52297409 2.80096634 -86.52856842 1.8405191 -86.53433228 0.85096741 C-86.54132959 0.01565522 -86.54832691 -0.81965696 -86.55553627 -1.68028164 C-86.4453125 -3.82421875 -86.4453125 -3.82421875 -85.4453125 -6.82421875 C-81.46651022 -7.02007228 -77.48726094 -7.20450545 -73.5078125 -7.38671875 C-71.80334961 -7.47083008 -71.80334961 -7.47083008 -70.06445312 -7.55664062 C-68.98486328 -7.60498047 -67.90527344 -7.65332031 -66.79296875 -7.703125 C-65.79273682 -7.75025635 -64.79250488 -7.7973877 -63.76196289 -7.84594727 C-61.4453125 -7.82421875 -61.4453125 -7.82421875 -60.4453125 -6.82421875 C-59.99071392 -4.16958754 -59.74288012 -1.50232737 -59.4453125 1.17578125 C-58.4553125 0.59828125 -57.4653125 0.02078125 -56.4453125 -0.57421875 C-55.11283408 -1.32573658 -53.779461 -2.07566978 -52.4453125 -2.82421875 C-51.83171875 -3.18257813 -51.218125 -3.5409375 -50.5859375 -3.91015625 C-35.10407882 -12.41878106 -13.98080335 -10.42976863 0 0 Z " fill="#00A399" transform="translate(910.4453125,466.82421875)"/>
<path d="M0 0 C8.96861587 7.69326223 15.74459267 16.70974352 17.703125 28.4609375 C4.338125 28.9559375 4.338125 28.9559375 -9.296875 29.4609375 C-14.296875 21.4609375 -14.296875 21.4609375 -14.296875 19.4609375 C-14.956875 19.4609375 -15.616875 19.4609375 -16.296875 19.4609375 C-16.296875 18.8009375 -16.296875 18.1409375 -16.296875 17.4609375 C-25.49988714 12.5718373 -35.01646055 10.05607995 -45.296875 12.4609375 C-52.0938342 14.79709179 -57.63451053 18.17169851 -61.296875 24.4609375 C-68.57491725 39.82789083 -68.59871853 54.97173968 -63.51953125 70.8984375 C-60.62832781 77.72007881 -54.34012282 83.35976548 -47.671875 86.4609375 C-39.06399877 89.09494763 -28.61202569 88.66498257 -20.453125 84.87109375 C-15.61869254 81.70944498 -12.45839812 77.20322218 -9.296875 72.4609375 C-6.68310547 72.02856445 -6.68310547 72.02856445 -3.4140625 71.94921875 C-1.66416016 71.89604492 -1.66416016 71.89604492 0.12109375 71.84179688 C1.34441406 71.81923828 2.56773437 71.79667969 3.828125 71.7734375 C5.05917969 71.73927734 6.29023438 71.70511719 7.55859375 71.66992188 C10.6066801 71.58722186 13.65447071 71.51814323 16.703125 71.4609375 C18.10453746 75.66517489 16.7493106 77.80342659 15.05859375 81.7734375 C9.23875699 93.31247983 -1.40816686 102.5932394 -13.296875 107.4609375 C-28.75131732 112.11483206 -44.14074582 112.01754618 -59.296875 106.4609375 C-60.59431641 105.99300781 -60.59431641 105.99300781 -61.91796875 105.515625 C-67.2479511 103.37644153 -71.24521124 100.50355737 -75.296875 96.4609375 C-75.956875 95.81253906 -76.616875 95.16414062 -77.296875 94.49609375 C-90.97169507 80.17379167 -93.52394052 62.79894918 -93.359375 43.8359375 C-93.35486328 42.83175781 -93.35035156 41.82757813 -93.34570312 40.79296875 C-93.33406467 38.34889279 -93.3177174 35.9049493 -93.296875 33.4609375 C-92.636875 33.4609375 -91.976875 33.4609375 -91.296875 33.4609375 C-91.20921875 32.47222656 -91.1215625 31.48351562 -91.03125 30.46484375 C-90.38870046 25.99957378 -88.60461021 22.37395166 -86.546875 18.3984375 C-86.04414063 17.3765332 -86.04414063 17.3765332 -85.53125 16.33398438 C-83.25852039 11.85309134 -80.74935649 8.12491206 -77.296875 4.4609375 C-76.636875 4.4609375 -75.976875 4.4609375 -75.296875 4.4609375 C-75.296875 3.8009375 -75.296875 3.1409375 -75.296875 2.4609375 C-54.82996879 -15.51552658 -21.35007484 -17.09741766 0 0 Z " fill="#0284E0" transform="translate(437.296875,469.5390625)"/>
<path d="M0 0 C10.35490752 4.45618089 17.11400866 12.36956316 21.9921875 22.34765625 C24.43863377 28.78617182 25.29913034 34.70584071 25.31884766 41.52734375 C25.32889328 42.33805832 25.3389389 43.14877289 25.34928894 43.98405457 C25.37991557 46.63519653 25.39709841 49.28623849 25.4140625 51.9375 C25.4327907 53.78695524 25.45236533 55.63640209 25.4727478 57.48583984 C25.52390054 62.33216382 25.56361613 67.17851545 25.60089111 72.02496338 C25.64103688 76.97895046 25.69208081 81.93282418 25.7421875 86.88671875 C25.83874706 96.59107381 25.92220696 106.29547634 26 116 C17.42 116 8.84 116 0 116 C-0.0093457 113.71980957 -0.01869141 111.43961914 -0.02832031 109.09033203 C-0.06220354 101.52654664 -0.11781505 93.96303082 -0.18390274 86.39946175 C-0.22328321 81.81707527 -0.25551768 77.23487824 -0.27099609 72.65234375 C-0.28622516 68.22357341 -0.32078033 63.79532425 -0.36830902 59.36678696 C-0.38305872 57.6836998 -0.39103731 56.0005382 -0.39188385 54.31738663 C-0.17543108 39.70311532 -0.17543108 39.70311532 -6.72027588 27.0774231 C-13.10252448 20.99332351 -20.08440589 20.60681631 -28.5859375 20.75 C-34.78107558 21.20364856 -40.03616108 23.07438062 -44.69476318 27.40579224 C-51.4981381 35.71539013 -50.60429161 46.71320008 -50.609375 56.8203125 C-50.6243788 58.53239489 -50.64111052 60.24446292 -50.65948486 61.95651245 C-50.70292404 66.43132238 -50.72310507 70.90593714 -50.73822021 75.38092041 C-50.7578764 79.95979237 -50.79983648 84.53845614 -50.83984375 89.1171875 C-50.91489185 98.07809567 -50.96327139 107.03885276 -51 116 C-59.58 116 -68.16 116 -77 116 C-76.67 77.39 -76.34 38.78 -76 -1 C-53 -2 -53 -2 -50 0 C-49.70703125 2.1640625 -49.70703125 2.1640625 -49.8125 4.625 C-49.83957031 5.44226563 -49.86664062 6.25953125 -49.89453125 7.1015625 C-49.92933594 7.72804688 -49.96414063 8.35453125 -50 9 C-49.5875 8.61328125 -49.175 8.2265625 -48.75 7.828125 C-43.85307914 3.41215172 -38.76138711 -0.68655107 -32 -1.25 C-31.34 -1.1675 -30.68 -1.085 -30 -1 C-32.89530113 0.93020075 -35.72359645 2.28825172 -38.875 3.75 C-43.98433098 6.2522779 -46.67060958 8.48921297 -50 13 C-50.99 13 -51.98 13 -53 13 C-53 8.71 -53 4.42 -53 0 C-60.26 0 -67.52 0 -75 0 C-75 37.62 -75 75.24 -75 114 C-67.74 114 -60.48 114 -53 114 C-53.01047363 111.8660376 -53.02094727 109.7320752 -53.03173828 107.53344727 C-53.06498336 100.45678748 -53.0870116 93.3801241 -53.10362434 86.30340672 C-53.11402998 82.01578682 -53.1281299 77.72824741 -53.15087891 73.44067383 C-53.17272273 69.29744114 -53.18459281 65.15428554 -53.18975449 61.01099968 C-53.19342963 59.43587978 -53.20060591 57.86076375 -53.21146011 56.28567696 C-53.3577003 34.17054397 -53.3577003 34.17054397 -45 25 C-39.73136359 19.87001192 -33.89442713 17.85088615 -26.625 17.625 C-17.9603296 17.92460824 -11.04906669 19.8975585 -4.69140625 25.97265625 C1.21228758 33.04890821 2.12920751 41.35172067 2.11352539 50.29052734 C2.11367142 50.99366058 2.11381744 51.69679382 2.1139679 52.42123413 C2.11327584 54.72616755 2.1055168 57.03101834 2.09765625 59.3359375 C2.09578956 60.94161942 2.09436684 62.54730192 2.09336853 64.15298462 C2.08956315 68.36482332 2.07974988 72.57662716 2.06866455 76.78845215 C2.05840777 81.09203622 2.05386179 85.39562596 2.04882812 89.69921875 C2.03812573 98.13283023 2.02054507 106.56640675 2 115 C9.26 115 16.52 115 24 115 C23.93675808 105.20204473 23.86107655 95.40439285 23.76428509 85.60671043 C23.71980783 81.05585928 23.68050374 76.50509301 23.65356445 71.95410156 C23.62730309 67.55132041 23.58674497 63.14886997 23.53681374 58.74629593 C23.52029772 57.07767518 23.50868947 55.40899743 23.50238609 53.74030685 C23.43306647 37.05585478 22.07662309 21.81052499 10.28125 9.046875 C6.61450336 5.7568489 2.56174529 3.78036768 -2 2 C-2.86625 1.64035156 -3.7325 1.28070313 -4.625 0.91015625 C-9.35965773 -0.36666696 -13.9906787 -0.46616028 -18.875 -0.625 C-19.84953125 -0.66367187 -20.8240625 -0.70234375 -21.828125 -0.7421875 C-24.2185672 -0.83593033 -26.60901244 -0.9216383 -29 -1 C-20.25007232 -5.62588257 -9.0332326 -2.76977167 0 0 Z " fill="#05655B" transform="translate(664,461)"/>
<path d="M0 0 C1.12297485 -0.00637985 2.24594971 -0.0127597 3.4029541 -0.01933289 C4.62671753 -0.02044571 5.85048096 -0.02155853 7.11132812 -0.02270508 C9.00739807 -0.02769768 9.00739807 -0.02769768 10.94177246 -0.03279114 C13.63195279 -0.03786753 16.32203231 -0.04063062 19.01220703 -0.04003906 C21.73721073 -0.03995866 24.46204326 -0.04675563 27.18701172 -0.06054688 C75.59208345 -0.28811987 75.59208345 -0.28811987 84.42773438 7.77416992 C84.82863281 8.22663086 85.22953125 8.6790918 85.64257812 9.14526367 C83.78632813 8.49557617 83.78632813 8.49557617 81.89257812 7.83276367 C51.72565876 -1.86374613 35.15930249 2.71796982 -4.35742188 2.14526367 C-4.35742188 54.94526367 -4.35742188 107.74526367 -4.35742188 162.14526367 C2.90257813 162.14526367 10.16257813 162.14526367 17.64257812 162.14526367 C17.64257812 141.68526367 17.64257812 121.22526367 17.64257812 100.14526367 C48.34240326 97.9104105 48.34240326 97.9104105 54.34863281 101.9777832 C58.54692469 106.77712549 61.50226254 112.84347859 62.64257812 119.14526367 C62.31257813 119.80526367 61.98257813 120.46526367 61.64257812 121.14526367 C59.9956781 118.35422498 58.35024072 115.56232679 56.70507812 112.77026367 C56.23650391 111.97620117 55.76792969 111.18213867 55.28515625 110.36401367 C54.83720703 109.6034668 54.38925781 108.84291992 53.92773438 108.05932617 C53.51402588 107.35759277 53.10031738 106.65585937 52.67407227 105.93286133 C51.95803758 104.69196051 51.28328718 103.42668179 50.64257812 102.14526367 C40.08257812 101.81526367 29.52257812 101.48526367 18.64257812 101.14526367 C18.97257812 103.12526367 19.30257812 105.10526367 19.64257812 107.14526367 C19.72447495 109.0844965 19.76049482 111.02608461 19.75610352 112.96704102 C19.75602798 114.08774994 19.75595245 115.20845886 19.75587463 116.36312866 C19.75071335 117.55709259 19.74555206 118.75105652 19.74023438 119.98120117 C19.73881943 121.21569 19.73740448 122.45017883 19.73594666 123.72207642 C19.73036084 127.65483042 19.71781087 131.58752695 19.70507812 135.52026367 C19.69949725 138.19083576 19.69549871 140.8614073 19.69140625 143.53198242 C19.68039605 150.06976236 19.66367198 156.60750891 19.64257812 163.14526367 C15.51794396 163.34148413 11.3928624 163.52576584 7.26757812 163.70776367 C6.09195313 163.76383789 4.91632813 163.81991211 3.70507812 163.87768555 C2.58359375 163.92602539 1.46210937 163.97436523 0.30664062 164.02416992 C-0.73024902 164.07130127 -1.76713867 164.11843262 -2.83544922 164.16699219 C-5.35742188 164.14526367 -5.35742188 164.14526367 -7.35742188 163.14526367 C-7.32649476 162.58859261 -7.29556765 162.03192154 -7.26370335 161.45838165 C-6.326123 143.91298899 -6.29014966 126.40830429 -6.45795703 108.84559441 C-6.49299721 105.0420759 -6.52111972 101.23850542 -6.55006409 97.43493652 C-6.6055591 90.27458242 -6.66702262 83.11429331 -6.73078543 75.95400858 C-6.80323446 67.78435842 -6.86879393 59.61465714 -6.93385589 51.44494534 C-7.06753213 34.67831774 -7.20959641 17.91177263 -7.35742188 1.14526367 C-4.7716737 -0.14761042 -2.8956845 0.01115607 0 0 Z " fill="#0C5F9E" transform="translate(103.357421875,413.854736328125)"/>
<path d="M0 0 C0.59355614 2.64860427 0.74209269 5.29197322 1 8 C1.99 7.4225 2.98 6.845 4 6.25 C16.10607169 -0.61174104 16.10607169 -0.61174104 21 0 C17.16210711 2.55859526 13.07452414 4.39595016 8.91015625 6.3671875 C6.06499981 7.96353031 4.24870315 9.67583702 2 12 C1.34 12 0.68 12 0 12 C0 12.66 0 13.32 0 14 C-0.66 14 -1.32 14 -2 14 C-2 9.71 -2 5.42 -2 1 C-8.93 1 -15.86 1 -23 1 C-23 38.95 -23 76.9 -23 116 C-16.07 116 -9.14 116 -2 116 C-2.01571045 113.84098145 -2.0314209 111.68196289 -2.04760742 109.45751953 C-2.09750315 102.29308093 -2.13052842 95.12863429 -2.15543652 87.96406746 C-2.17103675 83.62373729 -2.1921708 79.2835864 -2.22631836 74.94335938 C-2.25911455 70.74824151 -2.27689536 66.55329519 -2.28463173 62.35805893 C-2.29013912 60.76421283 -2.30089293 59.17037523 -2.31719017 57.57660294 C-2.42477108 46.61141401 -2.4245285 35.82916902 5 27 C11.7440896 20.87436403 18.2579828 18.52763373 27.375 18.75 C33.19677019 19.3044543 38.86605315 20.46454425 43.125 24.6875 C43.74375 25.450625 44.3625 26.21375 45 27 C42.25082883 25.91699318 39.70434929 24.83289308 37.125 23.375 C30.52596527 20.55304436 22.04538716 20.99995317 15.203125 22.69140625 C9.60983678 24.93435237 5.7885844 28.23351389 3.15143108 33.78695679 C1.27245673 38.54539167 0.5569845 42.85037205 0.56762695 47.9765625 C0.5574353 48.72875565 0.54724365 49.48094879 0.53674316 50.25593567 C0.50683964 52.71236843 0.49738242 55.16840986 0.48828125 57.625 C0.47141769 59.33993808 0.45326521 61.05486392 0.43388367 62.76977539 C0.38655942 67.26100847 0.35663675 71.75219192 0.33044434 76.24359131 C0.30054971 80.83567093 0.25405013 85.42757989 0.20898438 90.01953125 C0.12315147 99.01293123 0.0557176 108.00636652 0 117 C-2.50100574 118.25050287 -4.00343052 118.02993449 -6.7890625 117.87890625 C-7.73007812 117.83056641 -8.67109375 117.78222656 -9.640625 117.73242188 C-10.62546875 117.67634766 -11.6103125 117.62027344 -12.625 117.5625 C-13.61757813 117.51029297 -14.61015625 117.45808594 -15.6328125 117.40429688 C-18.08884568 117.27441051 -20.5444936 117.13943836 -23 117 C-23.495 117.99 -23.495 117.99 -24 119 C-25.19363312 116.61273376 -25.14019927 115.11754309 -25.16494751 112.45179749 C-25.17618149 111.49417007 -25.18741547 110.53654266 -25.19898987 109.54989624 C-25.20631638 108.49581573 -25.21364288 107.44173523 -25.22119141 106.35571289 C-25.2326973 105.24833267 -25.24420319 104.14095245 -25.25605774 103.00001526 C-25.29286424 99.32425751 -25.32243744 95.64848232 -25.3515625 91.97265625 C-25.3746673 89.42679084 -25.39805753 86.88092801 -25.42172241 84.33506775 C-25.47023442 78.99268729 -25.51524829 73.6502928 -25.55761719 68.30786133 C-25.60667831 62.12984134 -25.66298359 55.95191856 -25.72303832 49.77399641 C-25.78055256 43.8345368 -25.83230757 37.89503715 -25.88163376 31.95550346 C-25.90324282 29.42645358 -25.9263966 26.89741641 -25.9510994 24.36839485 C-25.98488177 20.83684348 -26.01212065 17.30530136 -26.03759766 13.77368164 C-26.04897263 12.72162537 -26.0603476 11.66956909 -26.07206726 10.58563232 C-26.07766159 9.62518509 -26.08325592 8.66473785 -26.08901978 7.67518616 C-26.09601709 6.83987397 -26.10301441 6.00456179 -26.11022377 5.14393711 C-26 3 -26 3 -25 0 C-21.20873402 -0.19628414 -17.41697828 -0.38053896 -13.625 -0.5625 C-12.54476562 -0.61857422 -11.46453125 -0.67464844 -10.3515625 -0.73242188 C-9.3203125 -0.78076172 -8.2890625 -0.82910156 -7.2265625 -0.87890625 C-6.27346191 -0.9260376 -5.32036133 -0.97316895 -4.33837891 -1.02172852 C-2 -1 -2 -1 0 0 Z " fill="#076B5E" transform="translate(850,460)"/>
<path d="M0 0 C0.66 0.33 1.32 0.66 2 1 C1.55269531 1.41507812 1.10539062 1.83015625 0.64453125 2.2578125 C-7.91371177 10.9802862 -10.70016523 22.21346072 -11.13671875 34.1875 C-10.71577621 45.92578327 -8.46901112 57.01296021 0.25 65.3125 C8.89034176 72.42889798 16.88622326 73.02209152 28 72 C37.22895884 70.05384024 41.94439652 64.58340522 47 57 C49.61376953 56.56762695 49.61376953 56.56762695 52.8828125 56.48828125 C54.04941406 56.45283203 55.21601563 56.41738281 56.41796875 56.38085938 C57.64128906 56.35830078 58.86460937 56.33574219 60.125 56.3125 C61.35605469 56.27833984 62.58710938 56.24417969 63.85546875 56.20898438 C66.9035551 56.12628436 69.95134571 56.05720573 73 56 C74.59826058 60.79478174 72.18449737 64.62384298 70 69 C67.75 71.625 67.75 71.625 66 73 C67.26740322 69.72587501 68.6482632 66.51415791 70.078125 63.30859375 C70.61808105 62.09707642 70.61808105 62.09707642 71.16894531 60.86108398 C71.58031738 59.93984741 71.58031738 59.93984741 72 59 C68.08389516 58.82573244 64.16878503 58.71915845 60.25 58.625 C59.13882813 58.57472656 58.02765625 58.52445313 56.8828125 58.47265625 C53.81326831 58.41718256 51.0180747 58.4309412 48 59 C45.24354698 61.68652797 45.24354698 61.68652797 44 65 C39.26804861 70.67834167 32.40450352 74.25954965 25 75 C15.89407727 75.72993369 7.16151958 73.91603792 0 68 C-8.31573746 60.82498995 -12.03505305 51.52809562 -13.25 40.79052734 C-14.16773469 27.7730344 -12.14956678 13.64961212 -3.56640625 3.265625 C-2.1875 1.875 -2.1875 1.875 0 0 Z " fill="#085B97" transform="translate(381,485)"/>
<path d="M0 0 C0.33 0 0.66 0 1 0 C1.8103122 4.955364 2.13987926 9.74651028 2.11352539 14.77124023 C2.11367142 15.51353378 2.11381744 16.25582733 2.1139679 17.02061462 C2.11327674 19.44997176 2.10552203 21.87925017 2.09765625 24.30859375 C2.09578923 26.00252745 2.09436667 27.69646169 2.09336853 29.39039612 C2.08956568 33.83073438 2.07975462 38.2710395 2.06866455 42.71136475 C2.05840227 47.24962923 2.05386062 51.78789911 2.04882812 56.32617188 C2.0381302 65.21746476 2.02055165 74.10872443 2 83 C-5.59 83 -13.18 83 -21 83 C-21 59.57 -21 36.14 -21 12 C-20.67 12 -20.34 12 -20 12 C-19.08897087 15.87647787 -18.87862863 19.46471752 -18.88647461 23.44262695 C-18.88655014 24.72357742 -18.88662567 26.00452789 -18.88670349 27.32429504 C-18.89180935 28.71229085 -18.89702533 30.10028625 -18.90234375 31.48828125 C-18.90421025 32.91603038 -18.90563306 34.34378015 -18.90663147 35.77153015 C-18.91043835 39.51813545 -18.92025293 43.2647016 -18.93133545 47.0112915 C-18.94158898 50.83890249 -18.94613752 54.66651984 -18.95117188 58.49414062 C-18.96187693 65.99611361 -18.97945882 73.49804632 -19 81 C-12.4 81 -5.8 81 1 81 C0.67 54.27 0.34 27.54 0 0 Z " fill="#0291F0" transform="translate(565,493)"/>
<path d="M0 0 C5.19049954 5.19049954 4.18020578 15.180173 4.1875 22.125 C4.1887085 23.26304077 4.1887085 23.26304077 4.18994141 24.42407227 C4.13423071 29.86576929 4.13423071 29.86576929 3 31 C0.35261911 31.09511266 -2.26859001 31.12555635 -4.91625977 31.11352539 C-5.74545929 31.11367142 -6.57465881 31.11381744 -7.4289856 31.1139679 C-10.18315198 31.11326851 -12.93725161 31.10547493 -15.69140625 31.09765625 C-17.59569766 31.09579216 -19.49998955 31.09436822 -21.40428162 31.09336853 C-26.42667963 31.08954263 -31.44904892 31.07971173 -36.47143555 31.06866455 C-41.5922812 31.05845198 -46.71313148 31.05387124 -51.83398438 31.04882812 C-61.88933557 31.03808953 -71.9446654 31.02101224 -82 31 C-82 32.98 -82 34.96 -82 37 C-82.33 37 -82.66 37 -83 37 C-83 34.36 -83 31.72 -83 29 C-54.95 29 -26.9 29 2 29 C1.37048091 14.46807141 1.37048091 14.46807141 0 0 Z " fill="#0865A6" transform="translate(330,496)"/>
<path d="M0 0 C6.47011377 5.21203609 8.69226849 12.99023606 10 21 C10.11526205 23.70587371 10.18451969 26.38856117 10.20532227 29.0949707 C10.21522186 29.89549362 10.22512146 30.69601654 10.23532104 31.52079773 C10.26680277 34.15576258 10.29164055 36.79074544 10.31640625 39.42578125 C10.3369873 41.25709999 10.35798407 43.0884141 10.37937927 44.91972351 C10.43448111 49.73158004 10.48394267 54.54347859 10.53222656 59.35540771 C10.58252855 64.26887741 10.63816916 69.18228634 10.69335938 74.09570312 C10.8007955 83.73041869 10.90177903 93.36518608 11 103 C-2.365 103.495 -2.365 103.495 -16 104 C-15.505 66.38 -15.505 66.38 -15 28 C-14.67 28 -14.34 28 -14 28 C-14 52.42 -14 76.84 -14 102 C-6.41 102 1.18 102 9 102 C8.91418281 92.28067967 8.82027161 82.56152722 8.71247292 72.84242535 C8.66272294 68.3284933 8.61639266 63.81458226 8.578125 59.30053711 C8.54100108 54.93673677 8.4945712 50.57312202 8.44193649 46.20948219 C8.42353544 44.55232848 8.40837597 42.8951352 8.39665604 41.23792076 C8.31398099 29.94225636 8.15721654 18.98199732 3.4375 8.5 C2.18162822 5.6677669 0.98010065 2.94030195 0 0 Z " fill="#03426B" transform="translate(558,474)"/>
<path d="M0 0 C30.69982513 -2.23485317 30.69982513 -2.23485317 36.70605469 1.83251953 C40.90434656 6.63186182 43.85968442 12.69821492 45 19 C44.67 19.66 44.34 20.32 44 21 C42.35309997 18.2089613 40.70766259 15.41706312 39.0625 12.625 C38.59392578 11.8309375 38.12535156 11.036875 37.64257812 10.21875 C37.19462891 9.45820312 36.74667969 8.69765625 36.28515625 7.9140625 C35.87144775 7.2123291 35.45773926 6.5105957 35.03149414 5.78759766 C34.31545946 4.54669684 33.64070906 3.28141812 33 2 C22.44 1.67 11.88 1.34 1 1 C1.33 2.98 1.66 4.96 2 7 C2.08189682 8.93923283 2.11791669 10.88082094 2.11352539 12.82177734 C2.11344986 13.94248627 2.11337433 15.06319519 2.11329651 16.21786499 C2.10813522 17.41182892 2.10297394 18.60579285 2.09765625 19.8359375 C2.0962413 21.07042633 2.09482635 22.30491516 2.09336853 23.57681274 C2.08778272 27.50956675 2.07523275 31.44226328 2.0625 35.375 C2.05691912 38.04557208 2.05292058 40.71614363 2.04882812 43.38671875 C2.03781792 49.92449869 2.02109385 56.46224524 2 63 C-2.12463416 63.19622046 -6.24971573 63.38050216 -10.375 63.5625 C-12.1384375 63.64661133 -12.1384375 63.64661133 -13.9375 63.73242188 C-15.05898437 63.78076172 -16.18046875 63.82910156 -17.3359375 63.87890625 C-18.37282715 63.9260376 -19.4097168 63.97316895 -20.47802734 64.02172852 C-23 64 -23 64 -25 63 C-24.67 55.41 -24.34 47.82 -24 40 C-23.67 40 -23.34 40 -23 40 C-21.99890786 47.38305457 -21.9215584 54.54804765 -22 62 C-14.74 62 -7.48 62 0 62 C0 41.54 0 21.08 0 0 Z " fill="#064878" transform="translate(121,514)"/>
<path d="M0 0 C8.58 0 17.16 0 26 0 C24.875 6.75 24.875 6.75 22 10 C22.875 4.25 22.875 4.25 24 2 C16.41 2 8.82 2 1 2 C0.34 3.65 -0.32 5.3 -1 7 C-2.8046875 8.94921875 -2.8046875 8.94921875 -4.875 10.6875 C-5.89207031 11.55955078 -5.89207031 11.55955078 -6.9296875 12.44921875 C-8.92538665 13.94411038 -10.66748632 15.11704442 -13 16 C-13.99 15.67 -14.98 15.34 -16 15 C-15.00419922 14.45472656 -15.00419922 14.45472656 -13.98828125 13.8984375 C-7.67728754 10.305317 -2.39861142 7.19583427 0 0 Z " fill="#056E63" transform="translate(787,542)"/>
<path d="M0 0 C0.33 0 0.66 0 1 0 C2.00109214 7.38305457 2.0784416 14.54804765 2 22 C9.26 22 16.52 22 24 22 C24 19.36 24 16.72 24 14 C24.33 14 24.66 14 25 14 C25.33 16.97 25.66 19.94 26 23 C21.87536584 23.19622046 17.75028427 23.38050216 13.625 23.5625 C12.449375 23.61857422 11.27375 23.67464844 10.0625 23.73242188 C8.94101563 23.78076172 7.81953125 23.82910156 6.6640625 23.87890625 C5.62717285 23.9260376 4.5902832 23.97316895 3.52197266 24.02172852 C1 24 1 24 -1 23 C-0.67 15.41 -0.34 7.82 0 0 Z " fill="#0F5990" transform="translate(97,554)"/>
<path d="M0 0 C8.58 0 17.16 0 26 0 C25.34 2.97 24.68 5.94 24 9 C23.01 9.495 23.01 9.495 22 10 C22.52268466 7.23723823 23.10869587 4.6739124 24 2 C16.41 2 8.82 2 1 2 C1 2.66 1 3.32 1 4 C0.34 4 -0.32 4 -1 4 C-0.67 2.68 -0.34 1.36 0 0 Z " fill="#085D9C" transform="translate(307,542)"/>
<path d="M0 0 C0.99 0.495 0.99 0.495 2 1 C2.59355614 3.64860427 2.74209269 6.29197322 3 9 C3.99 8.4225 4.98 7.845 6 7.25 C18.10607169 0.38825896 18.10607169 0.38825896 23 1 C19.16210711 3.55859526 15.07452414 5.39595016 10.91015625 7.3671875 C8.06499981 8.96353031 6.24870315 10.67583702 4 13 C3.34 13 2.68 13 2 13 C2 13.66 2 14.32 2 15 C1.34 15 0.68 15 0 15 C0 10.05 0 5.1 0 0 Z " fill="#077364" transform="translate(848,459)"/>
<path d="M0 0 C0.66 0.33 1.32 0.66 2 1 C0.42334814 7.04383212 -1.19175707 12.00988858 -5 17 C-5.33 16.34 -5.66 15.68 -6 15 C-4.22525138 10.87984404 -2.07509241 6.98078952 0 3 C-6.93 3 -13.86 3 -21 3 C-21 2.67 -21 2.34 -21 2 C-14.07 2 -7.14 2 0 2 C0 1.34 0 0.68 0 0 Z " fill="#096BAF" transform="translate(453,541)"/>
<path d="M0 0 C0.33 0 0.66 0 1 0 C1.33 2.97 1.66 5.94 2 9 C-11.365 9.495 -11.365 9.495 -25 10 C-24.67 7.03 -24.34 4.06 -24 1 C-23.67 1 -23.34 1 -23 1 C-23 3.31 -23 5.62 -23 8 C-15.41 8 -7.82 8 0 8 C0 5.36 0 2.72 0 0 Z " fill="#084568" transform="translate(567,568)"/>
<path d="M0 0 C0.66 1.32 1.32 2.64 2 4 C2.66 4 3.32 4 4 4 C5.07421875 9.95703125 5.07421875 9.95703125 5 12 C4.01 12.99 3.02 13.98 2 15 C1.34 10.05 0.68 5.1 0 0 Z " fill="#0A76BE" transform="translate(540,492)"/>
<path d="M0 0 C0 3 0 3 -1.75 5.04296875 C-2.4925 5.75066406 -3.235 6.45835937 -4 7.1875 C-4.7425 7.90292969 -5.485 8.61835937 -6.25 9.35546875 C-7.11625 10.16951172 -7.11625 10.16951172 -8 11 C-8.66 10.67 -9.32 10.34 -10 10 C-9.360625 9.236875 -8.72125 8.47375 -8.0625 7.6875 C-5.85767219 5.11753287 -5.85767219 5.11753287 -5 2 C-3 1.375 -3 1.375 -1 1 C-0.67 0.67 -0.34 0.34 0 0 Z " fill="#0964A4" transform="translate(446,558)"/>
<path d="M0 0 C0 0.66 0 1.32 0 2 C-11.385 1.505 -11.385 1.505 -23 1 C-23 0.67 -23 0.34 -23 0 C-19.54210946 -0.19635974 -16.08367803 -0.38058252 -12.625 -0.5625 C-11.64015625 -0.61857422 -10.6553125 -0.67464844 -9.640625 -0.73242188 C-8.69960937 -0.78076172 -7.75859375 -0.82910156 -6.7890625 -0.87890625 C-5.48509521 -0.94960327 -5.48509521 -0.94960327 -4.15478516 -1.02172852 C-2 -1 -2 -1 0 0 Z " fill="#0396FA" transform="translate(215,574)"/>
<path d="M0 0 C4 1 4 1 4 1 Z " fill="#148CDA" transform="translate(401,456)"/>
<path d="M0 0 C3 1 3 1 3 1 Z " fill="#1A8CD5" transform="translate(400,581)"/>
<path d="M0 0 C0.66 0 1.32 0 2 0 C1.67 0.66 1.34 1.32 1 2 C0.67 1.34 0.34 0.68 0 0 Z " fill="#09AA96" transform="translate(897,496)"/>
<path d="M0 0 C3 1 3 1 3 1 Z " fill="#148EDA" transform="translate(521,456)"/>
<path d="M0 0 C2 1 2 1 2 1 Z " fill="#198BD5" transform="translate(390,580)"/>
<path d="" fill="#138BE3" transform="translate(0,0)"/>
<path d="M0 0 C2 1 2 1 2 1 Z " fill="#1388D7" transform="translate(406,456)"/>
<path d="M0 0 C2 1 2 1 2 1 Z " fill="#128AD8" transform="translate(398,456)"/>
<path d="M0 0 C2 1 2 1 2 1 Z " fill="#1488D7" transform="translate(278,456)"/>
<path d="" fill="#676967" transform="translate(0,0)"/>
<path d="" fill="#12A598" transform="translate(0,0)"/>
<path d="" fill="#0FA999" transform="translate(0,0)"/>
<path d="" fill="#1A89D5" transform="translate(0,0)"/>
<path d="" fill="#1989D3" transform="translate(0,0)"/>
<path d="" fill="#1788D2" transform="translate(0,0)"/>
<path d="" fill="#178CD4" transform="translate(0,0)"/>
<path d="" fill="#1A87CF" transform="translate(0,0)"/>
<path d="" fill="#1A87D1" transform="translate(0,0)"/>
<path d="" fill="#1D9BA1" transform="translate(0,0)"/>
<path d="" fill="#2682C0" transform="translate(0,0)"/>
<path d="" fill="#218CCE" transform="translate(0,0)"/>
<path d="" fill="#17A698" transform="translate(0,0)"/>
<path d="" fill="#15A4A8" transform="translate(0,0)"/>
<path d="" fill="#1588D1" transform="translate(0,0)"/>
<path d="" fill="#1489D5" transform="translate(0,0)"/>
<path d="" fill="#1289D6" transform="translate(0,0)"/>
<path d="" fill="#11A697" transform="translate(0,0)"/>
<path d="" fill="#1187D8" transform="translate(0,0)"/>
<path d="" fill="#158BDC" transform="translate(0,0)"/>
<path d="" fill="#1488D8" transform="translate(0,0)"/>
<path d="" fill="#1088DC" transform="translate(0,0)"/>
<path d="" fill="#148BDB" transform="translate(0,0)"/>
<path d="" fill="#1289DD" transform="translate(0,0)"/>
<path d="" fill="#128FE5" transform="translate(0,0)"/>
<path d="" fill="#0E8ADB" transform="translate(0,0)"/>
<path d="" fill="#138ADB" transform="translate(0,0)"/>
<path d="" fill="#1588D6" transform="translate(0,0)"/>
<path d="" fill="#0F8AE2" transform="translate(0,0)"/>
<path d="" fill="#0EA798" transform="translate(0,0)"/>
<path d="" fill="#108ADC" transform="translate(0,0)"/>
<path d="" fill="#158BD9" transform="translate(0,0)"/>
<path d="" fill="#1989D7" transform="translate(0,0)"/>
<path d="" fill="#1687D7" transform="translate(0,0)"/>
<path d="" fill="#148BDC" transform="translate(0,0)"/>
<path d="" fill="#168DDB" transform="translate(0,0)"/>
<path d="" fill="#0CAD9C" transform="translate(0,0)"/>
<path d="" fill="#118CE3" transform="translate(0,0)"/>
<path d="" fill="#0FAD9E" transform="translate(0,0)"/>
<path d="" fill="#148CE0" transform="translate(0,0)"/>
<path d="" fill="#0DAA9B" transform="translate(0,0)"/>
<path d="" fill="#0BB0A1" transform="translate(0,0)"/>
<path d="" fill="#118CE4" transform="translate(0,0)"/>
<path d="" fill="#118ADD" transform="translate(0,0)"/>
<path d="" fill="#148DDC" transform="translate(0,0)"/>
<path d="" fill="#0AA899" transform="translate(0,0)"/>
<path d="" fill="#11AC9A" transform="translate(0,0)"/>
<path d="" fill="#128ADC" transform="translate(0,0)"/>
<path d="" fill="#0FA897" transform="translate(0,0)"/>
<path d="" fill="#0FA998" transform="translate(0,0)"/>
<path d="" fill="#0C8DE4" transform="translate(0,0)"/>
<path d="" fill="#13A597" transform="translate(0,0)"/>
<path d="" fill="#0AA294" transform="translate(0,0)"/>
<path d="" fill="#0F8BDE" transform="translate(0,0)"/>
<path d="" fill="#0CA795" transform="translate(0,0)"/>
<path d="" fill="#128BE0" transform="translate(0,0)"/>
<path d="" fill="#09AD9F" transform="translate(0,0)"/>
<path d="" fill="#08B09E" transform="translate(0,0)"/>
<path d="" fill="#0AAC9D" transform="translate(0,0)"/>
<path d="" fill="#128BE2" transform="translate(0,0)"/>
<path d="" fill="#0BAA99" transform="translate(0,0)"/>
<path d="" fill="#1291E6" transform="translate(0,0)"/>
<path d="" fill="#1489DC" transform="translate(0,0)"/>
<path d="" fill="#1287DA" transform="translate(0,0)"/>
<path d="" fill="#12A897" transform="translate(0,0)"/>
<path d="" fill="#10AB9A" transform="translate(0,0)"/>
<path d="" fill="#0E8DE5" transform="translate(0,0)"/>
<path d="" fill="#1990C8" transform="translate(0,0)"/>
<path d="" fill="#0FA998" transform="translate(0,0)"/>
<path d="" fill="#1489D5" transform="translate(0,0)"/>
<path d="" fill="#0FA397" transform="translate(0,0)"/>
<path d="" fill="#128BD7" transform="translate(0,0)"/>
<path d="" fill="#148EDC" transform="translate(0,0)"/>
<path d="" fill="#148AD7" transform="translate(0,0)"/>
<path d="" fill="#1F89D4" transform="translate(0,0)"/>
<path d="" fill="#14A795" transform="translate(0,0)"/>
<path d="" fill="#188CDA" transform="translate(0,0)"/>
<path d="" fill="#188AD7" transform="translate(0,0)"/>
<path d="" fill="#178CDA" transform="translate(0,0)"/>
<path d="" fill="#10A899" transform="translate(0,0)"/>
<path d="" fill="#10A398" transform="translate(0,0)"/>
<path d="" fill="#0EA79A" transform="translate(0,0)"/>
<path d="" fill="#118DD5" transform="translate(0,0)"/>
<path d="" fill="#178AD6" transform="translate(0,0)"/>
<path d="" fill="#188AD6" transform="translate(0,0)"/>
<path d="" fill="#158ADA" transform="translate(0,0)"/>
<path d="" fill="#2A8BC9" transform="translate(0,0)"/>
<path d="" fill="#2C86C2" transform="translate(0,0)"/>
</svg>
